<svg width="128" height="128" viewBox="0 0 128 128" fill="none" xmlns="http://www.w3.org/2000/svg">
<rect width="128" height="128" rx="64" fill="#FED7AA"/>
<path d="M110 49.9746C110 39.9905 101.756 31.8288 91.6098 31.8288C91.5305 31.8288 91.4512 31.8288 91.4512 31.8288C87.7256 21.5277 77.1037 14 64.6585 14C52.2134 14 41.5122 21.4485 37.7866 31.8288C37.628 31.8288 37.5488 31.8288 37.3902 31.8288C27.2439 31.7496 19 39.9113 19 49.9746C19 59.2456 26.2134 67.0111 35.4085 67.962V114H93.5915V67.962C102.787 67.0111 110 59.3249 110 49.9746ZM89.9451 110.355H39.0549V103.778H89.8659V110.355H89.9451ZM91.6098 64.4754H89.628L89.9451 67.645V100.133H80.5122V73.8257C80.5122 72.7956 79.7195 72.0032 78.689 72.0032C77.6585 72.0032 76.8659 72.7956 76.8659 73.8257V100.212H66.3232V84.6815C66.3232 83.6513 65.5305 82.859 64.5 82.859C63.4695 82.859 62.6768 83.6513 62.6768 84.6815V100.133H52.1341V73.8257C52.1341 72.7956 51.3415 72.0032 50.311 72.0032C49.2805 72.0032 48.4878 72.7956 48.4878 73.8257V100.212H39.0549V67.8827L39.3719 64.4754H37.3902C29.2256 64.4754 22.6463 57.8986 22.6463 49.8954C22.6463 42.0507 28.9085 35.6323 36.8354 35.3946C36.5976 36.8209 36.439 38.3265 36.439 39.7528C36.439 40.7829 37.2317 41.5753 38.2622 41.5753C39.2927 41.5753 40.0854 40.7829 40.0854 39.7528C40.0854 27.5499 51.1037 17.5658 64.5793 17.5658C78.0549 17.5658 89.0732 27.5499 89.0732 39.7528C89.0732 40.7829 89.8659 41.5753 90.8963 41.5753C91.9268 41.5753 92.7195 40.7829 92.7195 39.7528C92.7195 38.2472 92.561 36.8209 92.3232 35.3946C100.091 35.7908 106.274 42.13 106.274 49.8954C106.354 57.9778 99.7744 64.4754 91.6098 64.4754ZM44.5244 41.0206C44.0488 41.0206 43.5732 40.6244 43.5732 40.149C43.5732 29.9271 52.2927 21.607 62.9939 21.607C63.4695 21.607 63.9451 22.0032 63.9451 22.4786C63.9451 22.954 63.5488 23.3502 62.9939 23.3502C53.3232 23.3502 45.4756 30.878 45.4756 40.149C45.4756 40.6244 45.0793 41.0206 44.5244 41.0206Z" fill="#6C6C6C"/>
</svg>
